<mxfile host="app.diagrams.net" agent="Mozilla/5.0 (Windows NT 10.0; Win64; x64) AppleWebKit/537.36 (KHTML, like Gecko) Chrome/130.0.0.0 Safari/537.36" version="24.8.3">
  <diagram id="-GSWcyLh5VV6jiHi30Cx" name="페이지-1">
    <mxGraphModel dx="1687" dy="918" grid="1" gridSize="10" guides="1" tooltips="1" connect="1" arrows="1" fold="1" page="1" pageScale="1" pageWidth="827" pageHeight="1169" math="0" shadow="0">
      <root>
        <mxCell id="0" />
        <mxCell id="1" parent="0" />
        <mxCell id="VJtvqMew01t1XMJXiIaO-25" value="&lt;p style=&quot;margin:0px;margin-top:6px;text-align:center;&quot;&gt;&lt;b&gt;Front-end&lt;/b&gt;&lt;/p&gt;&lt;hr size=&quot;1&quot; style=&quot;border-style:solid;&quot;&gt;&lt;p style=&quot;margin:0px;margin-left:8px;&quot;&gt;&lt;br&gt;&lt;/p&gt;" style="align=left;overflow=fill;html=1;dropTarget=0;whiteSpace=wrap;" parent="1" vertex="1">
          <mxGeometry x="300" y="60" width="520" height="460" as="geometry" />
        </mxCell>
        <mxCell id="VJtvqMew01t1XMJXiIaO-26" value="" style="shape=component;jettyWidth=8;jettyHeight=4;" parent="VJtvqMew01t1XMJXiIaO-25" vertex="1">
          <mxGeometry x="1" width="20" height="20" relative="1" as="geometry">
            <mxPoint x="-24" y="4" as="offset" />
          </mxGeometry>
        </mxCell>
        <mxCell id="VJtvqMew01t1XMJXiIaO-15" value="main page" style="shape=module;align=left;spacingLeft=20;align=center;verticalAlign=top;whiteSpace=wrap;html=1;fontStyle=1" parent="1" vertex="1">
          <mxGeometry x="610" y="100" width="100" height="50" as="geometry" />
        </mxCell>
        <mxCell id="VJtvqMew01t1XMJXiIaO-16" value="login page" style="shape=module;align=left;spacingLeft=20;align=center;verticalAlign=top;whiteSpace=wrap;html=1;fontStyle=1" parent="1" vertex="1">
          <mxGeometry x="610" y="336" width="100" height="50" as="geometry" />
        </mxCell>
        <mxCell id="VJtvqMew01t1XMJXiIaO-273" style="edgeStyle=orthogonalEdgeStyle;rounded=0;orthogonalLoop=1;jettySize=auto;html=1;entryX=1;entryY=0.25;entryDx=0;entryDy=0;curved=1;exitX=0.5;exitY=1;exitDx=0;exitDy=0;endArrow=none;endFill=0;startArrow=classic;startFill=1;dashed=1;" parent="1" source="VJtvqMew01t1XMJXiIaO-17" target="VJtvqMew01t1XMJXiIaO-19" edge="1">
          <mxGeometry relative="1" as="geometry" />
        </mxCell>
        <mxCell id="VJtvqMew01t1XMJXiIaO-17" value="interest" style="shape=module;align=left;spacingLeft=20;align=center;verticalAlign=top;whiteSpace=wrap;html=1;fontStyle=1" parent="1" vertex="1">
          <mxGeometry x="423" y="215" width="100" height="50" as="geometry" />
        </mxCell>
        <mxCell id="VJtvqMew01t1XMJXiIaO-274" style="edgeStyle=orthogonalEdgeStyle;rounded=0;orthogonalLoop=1;jettySize=auto;html=1;entryX=1;entryY=0.75;entryDx=0;entryDy=0;curved=1;exitX=0.5;exitY=0;exitDx=0;exitDy=0;dashed=1;startArrow=classic;startFill=1;endArrow=none;endFill=0;" parent="1" source="VJtvqMew01t1XMJXiIaO-18" target="VJtvqMew01t1XMJXiIaO-19" edge="1">
          <mxGeometry relative="1" as="geometry" />
        </mxCell>
        <mxCell id="VJtvqMew01t1XMJXiIaO-18" value="visit history" style="shape=module;align=left;spacingLeft=20;align=center;verticalAlign=top;whiteSpace=wrap;html=1;fontStyle=1" parent="1" vertex="1">
          <mxGeometry x="423" y="365" width="100" height="50" as="geometry" />
        </mxCell>
        <mxCell id="VJtvqMew01t1XMJXiIaO-19" value="user page" style="shape=module;align=left;spacingLeft=20;align=center;verticalAlign=top;whiteSpace=wrap;html=1;fontStyle=1" parent="1" vertex="1">
          <mxGeometry x="313" y="287.5" width="100" height="50" as="geometry" />
        </mxCell>
        <mxCell id="VJtvqMew01t1XMJXiIaO-20" value="profile switch" style="shape=module;align=left;spacingLeft=20;align=center;verticalAlign=top;whiteSpace=wrap;html=1;fontStyle=1" parent="1" vertex="1">
          <mxGeometry x="423" y="448.5" width="100" height="50" as="geometry" />
        </mxCell>
        <mxCell id="VJtvqMew01t1XMJXiIaO-400" style="edgeStyle=orthogonalEdgeStyle;rounded=0;orthogonalLoop=1;jettySize=auto;html=1;curved=1;dashed=1;" parent="1" source="VJtvqMew01t1XMJXiIaO-21" target="VJtvqMew01t1XMJXiIaO-22" edge="1">
          <mxGeometry relative="1" as="geometry" />
        </mxCell>
        <mxCell id="VJtvqMew01t1XMJXiIaO-21" value="restaurant page" style="shape=module;align=left;spacingLeft=20;align=center;verticalAlign=top;whiteSpace=wrap;html=1;fontStyle=1" parent="1" vertex="1">
          <mxGeometry x="610" y="160" width="100" height="50" as="geometry" />
        </mxCell>
        <mxCell id="VJtvqMew01t1XMJXiIaO-22" value="media player" style="shape=module;align=left;spacingLeft=20;align=center;verticalAlign=top;whiteSpace=wrap;html=1;fontStyle=1" parent="1" vertex="1">
          <mxGeometry x="610" y="260" width="100" height="50" as="geometry" />
        </mxCell>
        <mxCell id="VJtvqMew01t1XMJXiIaO-24" value="system resource" style="shape=module;align=left;spacingLeft=20;align=center;verticalAlign=top;whiteSpace=wrap;html=1;fontStyle=1" parent="1" vertex="1">
          <mxGeometry x="313" y="376" width="100" height="50" as="geometry" />
        </mxCell>
        <mxCell id="VJtvqMew01t1XMJXiIaO-27" value="&lt;p style=&quot;margin:0px;margin-top:6px;text-align:center;&quot;&gt;&lt;b&gt;Back-end&lt;/b&gt;&lt;/p&gt;&lt;hr size=&quot;1&quot; style=&quot;border-style:solid;&quot;&gt;&lt;p style=&quot;margin:0px;margin-left:8px;&quot;&gt;&lt;br&gt;&lt;/p&gt;" style="align=left;overflow=fill;html=1;dropTarget=0;whiteSpace=wrap;" parent="1" vertex="1">
          <mxGeometry x="900" y="60" width="410" height="400" as="geometry" />
        </mxCell>
        <mxCell id="VJtvqMew01t1XMJXiIaO-29" value="recommeand&lt;br&gt;API" style="shape=module;align=left;spacingLeft=20;align=center;verticalAlign=top;whiteSpace=wrap;html=1;fontStyle=1" parent="1" vertex="1">
          <mxGeometry x="990" y="110" width="100" height="50" as="geometry" />
        </mxCell>
        <mxCell id="VJtvqMew01t1XMJXiIaO-30" value="login API" style="shape=module;align=left;spacingLeft=20;align=center;verticalAlign=top;whiteSpace=wrap;html=1;fontStyle=1" parent="1" vertex="1">
          <mxGeometry x="1130" y="346" width="100" height="50" as="geometry" />
        </mxCell>
        <mxCell id="VJtvqMew01t1XMJXiIaO-38" value="user data&lt;br&gt;API" style="shape=module;align=left;spacingLeft=20;align=center;verticalAlign=top;whiteSpace=wrap;html=1;fontStyle=1" parent="1" vertex="1">
          <mxGeometry x="990" y="396" width="100" height="50" as="geometry" />
        </mxCell>
        <mxCell id="VJtvqMew01t1XMJXiIaO-40" value="media API" style="shape=module;align=left;spacingLeft=20;align=center;verticalAlign=top;whiteSpace=wrap;html=1;fontStyle=1" parent="1" vertex="1">
          <mxGeometry x="1100" y="270" width="100" height="50" as="geometry" />
        </mxCell>
        <mxCell id="VJtvqMew01t1XMJXiIaO-45" value="restaurant&lt;br&gt;API" style="shape=module;align=left;spacingLeft=20;align=center;verticalAlign=top;whiteSpace=wrap;html=1;fontStyle=1" parent="1" vertex="1">
          <mxGeometry x="1100" y="170" width="100" height="50" as="geometry" />
        </mxCell>
        <mxCell id="VJtvqMew01t1XMJXiIaO-126" style="edgeStyle=orthogonalEdgeStyle;rounded=0;orthogonalLoop=1;jettySize=auto;html=1;entryX=0;entryY=0;entryDx=0;entryDy=35;entryPerimeter=0;exitX=1;exitY=0.25;exitDx=0;exitDy=0;dashed=1;" parent="1" source="VJtvqMew01t1XMJXiIaO-38" target="VJtvqMew01t1XMJXiIaO-30" edge="1">
          <mxGeometry relative="1" as="geometry">
            <mxPoint x="980" y="506" as="sourcePoint" />
          </mxGeometry>
        </mxCell>
        <mxCell id="VJtvqMew01t1XMJXiIaO-192" value="&lt;span style=&quot;font-weight: normal;&quot;&gt;&amp;lt;&amp;lt;database&amp;gt;&amp;gt;&lt;/span&gt;&lt;br&gt;user data" style="shape=module;align=left;spacingLeft=20;align=center;verticalAlign=top;whiteSpace=wrap;html=1;fontStyle=1" parent="1" vertex="1">
          <mxGeometry x="1391.5" y="391" width="100" height="50" as="geometry" />
        </mxCell>
        <mxCell id="VJtvqMew01t1XMJXiIaO-233" value="&lt;span style=&quot;font-weight: normal;&quot;&gt;&amp;lt;&amp;lt;database&amp;gt;&amp;gt;&lt;br&gt;&lt;/span&gt;restaurant data" style="shape=module;align=left;spacingLeft=20;align=center;verticalAlign=top;whiteSpace=wrap;html=1;fontStyle=1" parent="1" vertex="1">
          <mxGeometry x="1391.5" y="180" width="98.5" height="50" as="geometry" />
        </mxCell>
        <mxCell id="VJtvqMew01t1XMJXiIaO-234" value="&lt;span style=&quot;font-weight: normal;&quot;&gt;&amp;lt;&amp;lt;database&amp;gt;&amp;gt;&lt;/span&gt;&lt;br&gt;media data" style="shape=module;align=left;spacingLeft=20;align=center;verticalAlign=top;whiteSpace=wrap;html=1;fontStyle=1" parent="1" vertex="1">
          <mxGeometry x="1391.5" y="280" width="100" height="50" as="geometry" />
        </mxCell>
        <mxCell id="VJtvqMew01t1XMJXiIaO-237" value="" style="shape=providedRequiredInterface;html=1;verticalLabelPosition=bottom;sketch=0;flipH=1;" parent="1" vertex="1">
          <mxGeometry x="1340" y="396" width="20" height="20" as="geometry" />
        </mxCell>
        <mxCell id="VJtvqMew01t1XMJXiIaO-239" style="edgeStyle=orthogonalEdgeStyle;rounded=0;orthogonalLoop=1;jettySize=auto;html=1;entryX=0;entryY=0;entryDx=0;entryDy=15;entryPerimeter=0;endArrow=none;endFill=0;" parent="1" source="VJtvqMew01t1XMJXiIaO-237" edge="1">
          <mxGeometry relative="1" as="geometry">
            <mxPoint x="1391.5" y="406" as="targetPoint" />
          </mxGeometry>
        </mxCell>
        <mxCell id="VJtvqMew01t1XMJXiIaO-240" value="" style="shape=providedRequiredInterface;html=1;verticalLabelPosition=bottom;sketch=0;flipH=1;" parent="1" vertex="1">
          <mxGeometry x="1340" y="285" width="20" height="20" as="geometry" />
        </mxCell>
        <mxCell id="VJtvqMew01t1XMJXiIaO-241" value="" style="shape=providedRequiredInterface;html=1;verticalLabelPosition=bottom;sketch=0;flipH=1;" parent="1" vertex="1">
          <mxGeometry x="1340" y="185" width="20" height="20" as="geometry" />
        </mxCell>
        <mxCell id="VJtvqMew01t1XMJXiIaO-242" style="edgeStyle=orthogonalEdgeStyle;rounded=0;orthogonalLoop=1;jettySize=auto;html=1;entryX=0;entryY=0;entryDx=0;entryDy=15;entryPerimeter=0;endArrow=none;endFill=0;" parent="1" source="VJtvqMew01t1XMJXiIaO-240" edge="1">
          <mxGeometry relative="1" as="geometry">
            <mxPoint x="1391.5" y="294.9999999999999" as="targetPoint" />
          </mxGeometry>
        </mxCell>
        <mxCell id="VJtvqMew01t1XMJXiIaO-243" style="edgeStyle=orthogonalEdgeStyle;rounded=0;orthogonalLoop=1;jettySize=auto;html=1;entryX=0;entryY=0;entryDx=0;entryDy=15;entryPerimeter=0;endArrow=none;endFill=0;" parent="1" source="VJtvqMew01t1XMJXiIaO-241" edge="1">
          <mxGeometry relative="1" as="geometry">
            <mxPoint x="1391.5" y="195.0000000000001" as="targetPoint" />
          </mxGeometry>
        </mxCell>
        <mxCell id="VJtvqMew01t1XMJXiIaO-254" style="edgeStyle=orthogonalEdgeStyle;rounded=0;orthogonalLoop=1;jettySize=auto;html=1;entryX=1;entryY=0.5;entryDx=0;entryDy=0;endArrow=none;endFill=0;" parent="1" source="VJtvqMew01t1XMJXiIaO-244" target="VJtvqMew01t1XMJXiIaO-253" edge="1">
          <mxGeometry relative="1" as="geometry" />
        </mxCell>
        <mxCell id="VJtvqMew01t1XMJXiIaO-244" value="" style="whiteSpace=wrap;html=1;aspect=fixed;" parent="1" vertex="1">
          <mxGeometry x="1300" y="185" width="20" height="20" as="geometry" />
        </mxCell>
        <mxCell id="VJtvqMew01t1XMJXiIaO-245" style="edgeStyle=orthogonalEdgeStyle;rounded=0;orthogonalLoop=1;jettySize=auto;html=1;entryX=1;entryY=0.5;entryDx=0;entryDy=0;entryPerimeter=0;endArrow=none;endFill=0;" parent="1" source="VJtvqMew01t1XMJXiIaO-244" target="VJtvqMew01t1XMJXiIaO-241" edge="1">
          <mxGeometry relative="1" as="geometry" />
        </mxCell>
        <mxCell id="VJtvqMew01t1XMJXiIaO-264" style="edgeStyle=orthogonalEdgeStyle;rounded=0;orthogonalLoop=1;jettySize=auto;html=1;entryX=1;entryY=0.5;entryDx=0;entryDy=0;endArrow=none;endFill=0;" parent="1" source="VJtvqMew01t1XMJXiIaO-246" target="VJtvqMew01t1XMJXiIaO-263" edge="1">
          <mxGeometry relative="1" as="geometry" />
        </mxCell>
        <mxCell id="VJtvqMew01t1XMJXiIaO-246" value="" style="whiteSpace=wrap;html=1;aspect=fixed;" parent="1" vertex="1">
          <mxGeometry x="1300" y="285" width="20" height="20" as="geometry" />
        </mxCell>
        <mxCell id="VJtvqMew01t1XMJXiIaO-268" style="edgeStyle=orthogonalEdgeStyle;rounded=0;orthogonalLoop=1;jettySize=auto;html=1;entryX=1;entryY=0.5;entryDx=0;entryDy=0;endArrow=none;endFill=0;curved=1;" parent="1" source="VJtvqMew01t1XMJXiIaO-247" target="VJtvqMew01t1XMJXiIaO-267" edge="1">
          <mxGeometry relative="1" as="geometry" />
        </mxCell>
        <mxCell id="VJtvqMew01t1XMJXiIaO-269" style="edgeStyle=orthogonalEdgeStyle;rounded=0;orthogonalLoop=1;jettySize=auto;html=1;entryX=1;entryY=0.5;entryDx=0;entryDy=0;endArrow=none;endFill=0;curved=1;" parent="1" source="VJtvqMew01t1XMJXiIaO-247" target="VJtvqMew01t1XMJXiIaO-266" edge="1">
          <mxGeometry relative="1" as="geometry" />
        </mxCell>
        <mxCell id="VJtvqMew01t1XMJXiIaO-247" value="" style="whiteSpace=wrap;html=1;aspect=fixed;" parent="1" vertex="1">
          <mxGeometry x="1300" y="396" width="20" height="20" as="geometry" />
        </mxCell>
        <mxCell id="VJtvqMew01t1XMJXiIaO-250" style="edgeStyle=orthogonalEdgeStyle;rounded=0;orthogonalLoop=1;jettySize=auto;html=1;entryX=1;entryY=0.5;entryDx=0;entryDy=0;entryPerimeter=0;endArrow=none;endFill=0;" parent="1" source="VJtvqMew01t1XMJXiIaO-246" target="VJtvqMew01t1XMJXiIaO-240" edge="1">
          <mxGeometry relative="1" as="geometry" />
        </mxCell>
        <mxCell id="VJtvqMew01t1XMJXiIaO-251" style="edgeStyle=orthogonalEdgeStyle;rounded=0;orthogonalLoop=1;jettySize=auto;html=1;entryX=1;entryY=0.5;entryDx=0;entryDy=0;entryPerimeter=0;endArrow=none;endFill=0;" parent="1" source="VJtvqMew01t1XMJXiIaO-247" target="VJtvqMew01t1XMJXiIaO-237" edge="1">
          <mxGeometry relative="1" as="geometry" />
        </mxCell>
        <mxCell id="VJtvqMew01t1XMJXiIaO-255" style="edgeStyle=orthogonalEdgeStyle;rounded=0;orthogonalLoop=1;jettySize=auto;html=1;entryX=1;entryY=0.5;entryDx=0;entryDy=0;endArrow=none;endFill=0;" parent="1" source="VJtvqMew01t1XMJXiIaO-253" target="VJtvqMew01t1XMJXiIaO-45" edge="1">
          <mxGeometry relative="1" as="geometry" />
        </mxCell>
        <mxCell id="VJtvqMew01t1XMJXiIaO-253" value="" style="ellipse;whiteSpace=wrap;html=1;aspect=fixed;" parent="1" vertex="1">
          <mxGeometry x="1240" y="187.5" width="15" height="15" as="geometry" />
        </mxCell>
        <mxCell id="VJtvqMew01t1XMJXiIaO-259" style="edgeStyle=orthogonalEdgeStyle;rounded=0;orthogonalLoop=1;jettySize=auto;html=1;entryX=1;entryY=0.5;entryDx=0;entryDy=0;endArrow=none;endFill=0;" parent="1" source="VJtvqMew01t1XMJXiIaO-257" target="VJtvqMew01t1XMJXiIaO-29" edge="1">
          <mxGeometry relative="1" as="geometry" />
        </mxCell>
        <mxCell id="VJtvqMew01t1XMJXiIaO-257" value="" style="shape=providedRequiredInterface;html=1;verticalLabelPosition=bottom;sketch=0;flipH=1;" parent="1" vertex="1">
          <mxGeometry x="1110" y="125" width="20" height="20" as="geometry" />
        </mxCell>
        <mxCell id="VJtvqMew01t1XMJXiIaO-258" style="edgeStyle=orthogonalEdgeStyle;rounded=0;orthogonalLoop=1;jettySize=auto;html=1;entryX=0;entryY=0.5;entryDx=0;entryDy=0;entryPerimeter=0;endArrow=none;endFill=0;" parent="1" source="VJtvqMew01t1XMJXiIaO-45" target="VJtvqMew01t1XMJXiIaO-257" edge="1">
          <mxGeometry relative="1" as="geometry" />
        </mxCell>
        <mxCell id="VJtvqMew01t1XMJXiIaO-265" style="edgeStyle=orthogonalEdgeStyle;rounded=0;orthogonalLoop=1;jettySize=auto;html=1;entryX=1;entryY=0.5;entryDx=0;entryDy=0;endArrow=none;endFill=0;" parent="1" source="VJtvqMew01t1XMJXiIaO-263" target="VJtvqMew01t1XMJXiIaO-40" edge="1">
          <mxGeometry relative="1" as="geometry" />
        </mxCell>
        <mxCell id="VJtvqMew01t1XMJXiIaO-263" value="" style="ellipse;whiteSpace=wrap;html=1;aspect=fixed;" parent="1" vertex="1">
          <mxGeometry x="1240" y="287.5" width="15" height="15" as="geometry" />
        </mxCell>
        <mxCell id="VJtvqMew01t1XMJXiIaO-271" style="rounded=0;orthogonalLoop=1;jettySize=auto;html=1;entryX=1;entryY=0.5;entryDx=0;entryDy=0;endArrow=none;endFill=0;" parent="1" source="VJtvqMew01t1XMJXiIaO-266" target="VJtvqMew01t1XMJXiIaO-30" edge="1">
          <mxGeometry relative="1" as="geometry" />
        </mxCell>
        <mxCell id="VJtvqMew01t1XMJXiIaO-266" value="" style="ellipse;whiteSpace=wrap;html=1;aspect=fixed;" parent="1" vertex="1">
          <mxGeometry x="1240" y="363.5" width="15" height="15" as="geometry" />
        </mxCell>
        <mxCell id="VJtvqMew01t1XMJXiIaO-270" style="edgeStyle=orthogonalEdgeStyle;rounded=0;orthogonalLoop=1;jettySize=auto;html=1;entryX=1;entryY=0.75;entryDx=0;entryDy=0;endArrow=none;endFill=0;" parent="1" source="VJtvqMew01t1XMJXiIaO-267" target="VJtvqMew01t1XMJXiIaO-38" edge="1">
          <mxGeometry relative="1" as="geometry" />
        </mxCell>
        <mxCell id="VJtvqMew01t1XMJXiIaO-267" value="" style="ellipse;whiteSpace=wrap;html=1;aspect=fixed;" parent="1" vertex="1">
          <mxGeometry x="1240" y="426" width="15" height="15" as="geometry" />
        </mxCell>
        <mxCell id="VJtvqMew01t1XMJXiIaO-302" style="edgeStyle=orthogonalEdgeStyle;rounded=0;orthogonalLoop=1;jettySize=auto;html=1;entryX=0;entryY=0.5;entryDx=0;entryDy=0;endArrow=none;endFill=0;entryPerimeter=0;" parent="1" source="VJtvqMew01t1XMJXiIaO-276" target="VJtvqMew01t1XMJXiIaO-326" edge="1">
          <mxGeometry relative="1" as="geometry">
            <mxPoint x="865.00000000001" y="125" as="targetPoint" />
          </mxGeometry>
        </mxCell>
        <mxCell id="VJtvqMew01t1XMJXiIaO-276" value="" style="whiteSpace=wrap;html=1;aspect=fixed;" parent="1" vertex="1">
          <mxGeometry x="890" y="115" width="20" height="20" as="geometry" />
        </mxCell>
        <mxCell id="VJtvqMew01t1XMJXiIaO-340" value="" style="edgeStyle=orthogonalEdgeStyle;rounded=0;orthogonalLoop=1;jettySize=auto;html=1;endArrow=none;endFill=0;" parent="1" source="VJtvqMew01t1XMJXiIaO-277" target="VJtvqMew01t1XMJXiIaO-328" edge="1">
          <mxGeometry relative="1" as="geometry" />
        </mxCell>
        <mxCell id="VJtvqMew01t1XMJXiIaO-277" value="" style="whiteSpace=wrap;html=1;aspect=fixed;" parent="1" vertex="1">
          <mxGeometry x="890" y="175" width="20" height="20" as="geometry" />
        </mxCell>
        <mxCell id="VJtvqMew01t1XMJXiIaO-281" style="edgeStyle=orthogonalEdgeStyle;rounded=0;orthogonalLoop=1;jettySize=auto;html=1;entryX=1;entryY=0.5;entryDx=0;entryDy=0;curved=1;endArrow=none;endFill=0;" parent="1" source="VJtvqMew01t1XMJXiIaO-279" target="VJtvqMew01t1XMJXiIaO-277" edge="1">
          <mxGeometry relative="1" as="geometry" />
        </mxCell>
        <mxCell id="VJtvqMew01t1XMJXiIaO-279" value="" style="shape=providedRequiredInterface;html=1;verticalLabelPosition=bottom;sketch=0;flipH=1;" parent="1" vertex="1">
          <mxGeometry x="1000" y="175" width="20" height="20" as="geometry" />
        </mxCell>
        <mxCell id="VJtvqMew01t1XMJXiIaO-280" style="rounded=0;orthogonalLoop=1;jettySize=auto;html=1;entryX=0;entryY=0;entryDx=0;entryDy=15;entryPerimeter=0;elbow=vertical;endArrow=none;endFill=0;edgeStyle=orthogonalEdgeStyle;curved=1;exitX=0;exitY=0.5;exitDx=0;exitDy=0;exitPerimeter=0;" parent="1" source="VJtvqMew01t1XMJXiIaO-279" target="VJtvqMew01t1XMJXiIaO-45" edge="1">
          <mxGeometry relative="1" as="geometry">
            <mxPoint x="1020" y="210" as="sourcePoint" />
          </mxGeometry>
        </mxCell>
        <mxCell id="VJtvqMew01t1XMJXiIaO-284" style="edgeStyle=orthogonalEdgeStyle;rounded=0;orthogonalLoop=1;jettySize=auto;html=1;entryX=1;entryY=0.5;entryDx=0;entryDy=0;curved=1;endArrow=none;endFill=0;" parent="1" source="VJtvqMew01t1XMJXiIaO-282" target="VJtvqMew01t1XMJXiIaO-276" edge="1">
          <mxGeometry relative="1" as="geometry" />
        </mxCell>
        <mxCell id="VJtvqMew01t1XMJXiIaO-282" value="" style="shape=providedRequiredInterface;html=1;verticalLabelPosition=bottom;sketch=0;flipH=1;" parent="1" vertex="1">
          <mxGeometry x="940" y="115" width="20" height="20" as="geometry" />
        </mxCell>
        <mxCell id="VJtvqMew01t1XMJXiIaO-283" style="rounded=0;orthogonalLoop=1;jettySize=auto;html=1;exitX=0;exitY=0;exitDx=0;exitDy=15;exitPerimeter=0;entryX=0;entryY=0.5;entryDx=0;entryDy=0;entryPerimeter=0;endArrow=none;endFill=0;" parent="1" source="VJtvqMew01t1XMJXiIaO-29" target="VJtvqMew01t1XMJXiIaO-282" edge="1">
          <mxGeometry relative="1" as="geometry" />
        </mxCell>
        <mxCell id="VJtvqMew01t1XMJXiIaO-336" value="" style="edgeStyle=orthogonalEdgeStyle;rounded=0;orthogonalLoop=1;jettySize=auto;html=1;endArrow=none;endFill=0;" parent="1" source="VJtvqMew01t1XMJXiIaO-285" target="VJtvqMew01t1XMJXiIaO-330" edge="1">
          <mxGeometry relative="1" as="geometry" />
        </mxCell>
        <mxCell id="VJtvqMew01t1XMJXiIaO-285" value="" style="whiteSpace=wrap;html=1;aspect=fixed;" parent="1" vertex="1">
          <mxGeometry x="890" y="351" width="20" height="20" as="geometry" />
        </mxCell>
        <mxCell id="VJtvqMew01t1XMJXiIaO-338" value="" style="edgeStyle=orthogonalEdgeStyle;rounded=0;orthogonalLoop=1;jettySize=auto;html=1;endArrow=none;endFill=0;" parent="1" source="VJtvqMew01t1XMJXiIaO-286" target="VJtvqMew01t1XMJXiIaO-329" edge="1">
          <mxGeometry relative="1" as="geometry" />
        </mxCell>
        <mxCell id="VJtvqMew01t1XMJXiIaO-286" value="" style="whiteSpace=wrap;html=1;aspect=fixed;" parent="1" vertex="1">
          <mxGeometry x="890" y="275" width="20" height="20" as="geometry" />
        </mxCell>
        <mxCell id="VJtvqMew01t1XMJXiIaO-334" value="" style="edgeStyle=orthogonalEdgeStyle;rounded=0;orthogonalLoop=1;jettySize=auto;html=1;endArrow=none;endFill=0;" parent="1" source="VJtvqMew01t1XMJXiIaO-288" target="VJtvqMew01t1XMJXiIaO-333" edge="1">
          <mxGeometry relative="1" as="geometry" />
        </mxCell>
        <mxCell id="VJtvqMew01t1XMJXiIaO-288" value="" style="whiteSpace=wrap;html=1;aspect=fixed;" parent="1" vertex="1">
          <mxGeometry x="890" y="401" width="20" height="20" as="geometry" />
        </mxCell>
        <mxCell id="VJtvqMew01t1XMJXiIaO-289" style="edgeStyle=orthogonalEdgeStyle;rounded=0;orthogonalLoop=1;jettySize=auto;html=1;curved=1;endArrow=none;endFill=0;entryX=1;entryY=0.5;entryDx=0;entryDy=0;" parent="1" source="VJtvqMew01t1XMJXiIaO-290" target="VJtvqMew01t1XMJXiIaO-286" edge="1">
          <mxGeometry relative="1" as="geometry">
            <mxPoint x="910" y="290" as="targetPoint" />
          </mxGeometry>
        </mxCell>
        <mxCell id="VJtvqMew01t1XMJXiIaO-290" value="" style="shape=providedRequiredInterface;html=1;verticalLabelPosition=bottom;sketch=0;flipH=1;" parent="1" vertex="1">
          <mxGeometry x="1000" y="275" width="20" height="20" as="geometry" />
        </mxCell>
        <mxCell id="VJtvqMew01t1XMJXiIaO-291" style="rounded=0;orthogonalLoop=1;jettySize=auto;html=1;entryX=0;entryY=0;entryDx=0;entryDy=15;entryPerimeter=0;elbow=vertical;endArrow=none;endFill=0;edgeStyle=orthogonalEdgeStyle;curved=1;exitX=0;exitY=0.5;exitDx=0;exitDy=0;exitPerimeter=0;" parent="1" source="VJtvqMew01t1XMJXiIaO-290" target="VJtvqMew01t1XMJXiIaO-40" edge="1">
          <mxGeometry relative="1" as="geometry">
            <mxPoint x="1020" y="310" as="sourcePoint" />
            <mxPoint x="1100" y="285" as="targetPoint" />
          </mxGeometry>
        </mxCell>
        <mxCell id="VJtvqMew01t1XMJXiIaO-296" style="edgeStyle=orthogonalEdgeStyle;rounded=0;orthogonalLoop=1;jettySize=auto;html=1;entryX=1;entryY=0.5;entryDx=0;entryDy=0;curved=1;endArrow=none;endFill=0;" parent="1" source="VJtvqMew01t1XMJXiIaO-294" target="VJtvqMew01t1XMJXiIaO-288" edge="1">
          <mxGeometry relative="1" as="geometry" />
        </mxCell>
        <mxCell id="VJtvqMew01t1XMJXiIaO-294" value="" style="shape=providedRequiredInterface;html=1;verticalLabelPosition=bottom;sketch=0;flipH=1;" parent="1" vertex="1">
          <mxGeometry x="940" y="401" width="20" height="20" as="geometry" />
        </mxCell>
        <mxCell id="VJtvqMew01t1XMJXiIaO-295" style="edgeStyle=orthogonalEdgeStyle;rounded=0;orthogonalLoop=1;jettySize=auto;html=1;entryX=0;entryY=0;entryDx=0;entryDy=15;entryPerimeter=0;curved=1;endArrow=none;endFill=0;" parent="1" source="VJtvqMew01t1XMJXiIaO-294" target="VJtvqMew01t1XMJXiIaO-38" edge="1">
          <mxGeometry relative="1" as="geometry" />
        </mxCell>
        <mxCell id="VJtvqMew01t1XMJXiIaO-299" style="edgeStyle=orthogonalEdgeStyle;rounded=0;orthogonalLoop=1;jettySize=auto;html=1;entryX=1;entryY=0.5;entryDx=0;entryDy=0;endArrow=none;endFill=0;" parent="1" source="VJtvqMew01t1XMJXiIaO-297" target="VJtvqMew01t1XMJXiIaO-285" edge="1">
          <mxGeometry relative="1" as="geometry" />
        </mxCell>
        <mxCell id="VJtvqMew01t1XMJXiIaO-297" value="" style="shape=providedRequiredInterface;html=1;verticalLabelPosition=bottom;sketch=0;flipH=1;" parent="1" vertex="1">
          <mxGeometry x="1000" y="351" width="20" height="20" as="geometry" />
        </mxCell>
        <mxCell id="VJtvqMew01t1XMJXiIaO-298" style="edgeStyle=orthogonalEdgeStyle;rounded=0;orthogonalLoop=1;jettySize=auto;html=1;entryX=0;entryY=0;entryDx=0;entryDy=15;entryPerimeter=0;endArrow=none;endFill=0;" parent="1" source="VJtvqMew01t1XMJXiIaO-297" target="VJtvqMew01t1XMJXiIaO-30" edge="1">
          <mxGeometry relative="1" as="geometry" />
        </mxCell>
        <mxCell id="VJtvqMew01t1XMJXiIaO-316" value="" style="whiteSpace=wrap;html=1;aspect=fixed;" parent="1" vertex="1">
          <mxGeometry x="810" y="115" width="20" height="20" as="geometry" />
        </mxCell>
        <mxCell id="VJtvqMew01t1XMJXiIaO-355" style="edgeStyle=orthogonalEdgeStyle;rounded=0;orthogonalLoop=1;jettySize=auto;html=1;entryX=1;entryY=0.5;entryDx=0;entryDy=0;endArrow=none;endFill=0;" parent="1" source="VJtvqMew01t1XMJXiIaO-317" target="VJtvqMew01t1XMJXiIaO-348" edge="1">
          <mxGeometry relative="1" as="geometry" />
        </mxCell>
        <mxCell id="VJtvqMew01t1XMJXiIaO-317" value="" style="whiteSpace=wrap;html=1;aspect=fixed;" parent="1" vertex="1">
          <mxGeometry x="810" y="175" width="20" height="20" as="geometry" />
        </mxCell>
        <mxCell id="VJtvqMew01t1XMJXiIaO-354" style="edgeStyle=orthogonalEdgeStyle;rounded=0;orthogonalLoop=1;jettySize=auto;html=1;entryX=1;entryY=0.5;entryDx=0;entryDy=0;endArrow=none;endFill=0;" parent="1" source="VJtvqMew01t1XMJXiIaO-318" target="VJtvqMew01t1XMJXiIaO-349" edge="1">
          <mxGeometry relative="1" as="geometry" />
        </mxCell>
        <mxCell id="VJtvqMew01t1XMJXiIaO-318" value="" style="whiteSpace=wrap;html=1;aspect=fixed;" parent="1" vertex="1">
          <mxGeometry x="810" y="275" width="20" height="20" as="geometry" />
        </mxCell>
        <mxCell id="VJtvqMew01t1XMJXiIaO-353" style="edgeStyle=orthogonalEdgeStyle;rounded=0;orthogonalLoop=1;jettySize=auto;html=1;entryX=1;entryY=0.5;entryDx=0;entryDy=0;endArrow=none;endFill=0;curved=1;" parent="1" source="VJtvqMew01t1XMJXiIaO-319" target="VJtvqMew01t1XMJXiIaO-350" edge="1">
          <mxGeometry relative="1" as="geometry" />
        </mxCell>
        <mxCell id="VJtvqMew01t1XMJXiIaO-319" value="" style="whiteSpace=wrap;html=1;aspect=fixed;" parent="1" vertex="1">
          <mxGeometry x="810" y="351" width="20" height="20" as="geometry" />
        </mxCell>
        <mxCell id="VJtvqMew01t1XMJXiIaO-352" style="edgeStyle=orthogonalEdgeStyle;rounded=0;orthogonalLoop=1;jettySize=auto;html=1;entryX=1;entryY=0.5;entryDx=0;entryDy=0;endArrow=none;endFill=0;curved=1;" parent="1" source="VJtvqMew01t1XMJXiIaO-320" target="VJtvqMew01t1XMJXiIaO-351" edge="1">
          <mxGeometry relative="1" as="geometry" />
        </mxCell>
        <mxCell id="VJtvqMew01t1XMJXiIaO-320" value="" style="whiteSpace=wrap;html=1;aspect=fixed;" parent="1" vertex="1">
          <mxGeometry x="810" y="401" width="20" height="20" as="geometry" />
        </mxCell>
        <mxCell id="VJtvqMew01t1XMJXiIaO-342" value="" style="edgeStyle=orthogonalEdgeStyle;rounded=0;orthogonalLoop=1;jettySize=auto;html=1;endArrow=none;endFill=0;" parent="1" source="VJtvqMew01t1XMJXiIaO-326" target="VJtvqMew01t1XMJXiIaO-316" edge="1">
          <mxGeometry relative="1" as="geometry" />
        </mxCell>
        <mxCell id="VJtvqMew01t1XMJXiIaO-326" value="" style="shape=providedRequiredInterface;html=1;verticalLabelPosition=bottom;sketch=0;flipH=1;" parent="1" vertex="1">
          <mxGeometry x="850" y="115" width="20" height="20" as="geometry" />
        </mxCell>
        <mxCell id="VJtvqMew01t1XMJXiIaO-341" value="" style="edgeStyle=orthogonalEdgeStyle;rounded=0;orthogonalLoop=1;jettySize=auto;html=1;endArrow=none;endFill=0;" parent="1" source="VJtvqMew01t1XMJXiIaO-328" target="VJtvqMew01t1XMJXiIaO-317" edge="1">
          <mxGeometry relative="1" as="geometry" />
        </mxCell>
        <mxCell id="VJtvqMew01t1XMJXiIaO-328" value="" style="shape=providedRequiredInterface;html=1;verticalLabelPosition=bottom;sketch=0;flipH=1;" parent="1" vertex="1">
          <mxGeometry x="850" y="175" width="20" height="20" as="geometry" />
        </mxCell>
        <mxCell id="VJtvqMew01t1XMJXiIaO-339" value="" style="edgeStyle=orthogonalEdgeStyle;rounded=0;orthogonalLoop=1;jettySize=auto;html=1;endArrow=none;endFill=0;" parent="1" source="VJtvqMew01t1XMJXiIaO-329" target="VJtvqMew01t1XMJXiIaO-318" edge="1">
          <mxGeometry relative="1" as="geometry" />
        </mxCell>
        <mxCell id="VJtvqMew01t1XMJXiIaO-329" value="" style="shape=providedRequiredInterface;html=1;verticalLabelPosition=bottom;sketch=0;flipH=1;" parent="1" vertex="1">
          <mxGeometry x="850" y="275" width="20" height="20" as="geometry" />
        </mxCell>
        <mxCell id="VJtvqMew01t1XMJXiIaO-337" value="" style="edgeStyle=orthogonalEdgeStyle;rounded=0;orthogonalLoop=1;jettySize=auto;html=1;endArrow=none;endFill=0;" parent="1" source="VJtvqMew01t1XMJXiIaO-330" target="VJtvqMew01t1XMJXiIaO-319" edge="1">
          <mxGeometry relative="1" as="geometry" />
        </mxCell>
        <mxCell id="VJtvqMew01t1XMJXiIaO-330" value="" style="shape=providedRequiredInterface;html=1;verticalLabelPosition=bottom;sketch=0;flipH=1;" parent="1" vertex="1">
          <mxGeometry x="850" y="351" width="20" height="20" as="geometry" />
        </mxCell>
        <mxCell id="VJtvqMew01t1XMJXiIaO-335" value="" style="edgeStyle=orthogonalEdgeStyle;rounded=0;orthogonalLoop=1;jettySize=auto;html=1;endArrow=none;endFill=0;" parent="1" source="VJtvqMew01t1XMJXiIaO-333" target="VJtvqMew01t1XMJXiIaO-320" edge="1">
          <mxGeometry relative="1" as="geometry" />
        </mxCell>
        <mxCell id="VJtvqMew01t1XMJXiIaO-333" value="" style="shape=providedRequiredInterface;html=1;verticalLabelPosition=bottom;sketch=0;flipH=1;" parent="1" vertex="1">
          <mxGeometry x="850" y="401" width="20" height="20" as="geometry" />
        </mxCell>
        <mxCell id="VJtvqMew01t1XMJXiIaO-356" style="edgeStyle=orthogonalEdgeStyle;rounded=0;orthogonalLoop=1;jettySize=auto;html=1;entryX=1;entryY=0.5;entryDx=0;entryDy=0;exitX=0;exitY=0.5;exitDx=0;exitDy=0;endArrow=none;endFill=0;" parent="1" source="VJtvqMew01t1XMJXiIaO-346" target="VJtvqMew01t1XMJXiIaO-15" edge="1">
          <mxGeometry relative="1" as="geometry" />
        </mxCell>
        <mxCell id="VJtvqMew01t1XMJXiIaO-346" value="" style="ellipse;whiteSpace=wrap;html=1;aspect=fixed;" parent="1" vertex="1">
          <mxGeometry x="750" y="117.5" width="15" height="15" as="geometry" />
        </mxCell>
        <mxCell id="VJtvqMew01t1XMJXiIaO-347" style="edgeStyle=orthogonalEdgeStyle;rounded=0;orthogonalLoop=1;jettySize=auto;html=1;entryX=1;entryY=0.5;entryDx=0;entryDy=0;endArrow=none;endFill=0;" parent="1" source="VJtvqMew01t1XMJXiIaO-316" target="VJtvqMew01t1XMJXiIaO-346" edge="1">
          <mxGeometry relative="1" as="geometry" />
        </mxCell>
        <mxCell id="VJtvqMew01t1XMJXiIaO-362" style="edgeStyle=orthogonalEdgeStyle;rounded=0;orthogonalLoop=1;jettySize=auto;html=1;entryX=1;entryY=0.5;entryDx=0;entryDy=0;endArrow=none;endFill=0;curved=1;" parent="1" source="VJtvqMew01t1XMJXiIaO-348" target="VJtvqMew01t1XMJXiIaO-21" edge="1">
          <mxGeometry relative="1" as="geometry" />
        </mxCell>
        <mxCell id="F4wmyyO4ZUKb2ccq9GjF-1" style="edgeStyle=orthogonalEdgeStyle;rounded=0;orthogonalLoop=1;jettySize=auto;html=1;entryX=1;entryY=0.5;entryDx=0;entryDy=0;curved=1;endArrow=none;endFill=0;" edge="1" parent="1" source="VJtvqMew01t1XMJXiIaO-348" target="VJtvqMew01t1XMJXiIaO-15">
          <mxGeometry relative="1" as="geometry" />
        </mxCell>
        <mxCell id="VJtvqMew01t1XMJXiIaO-348" value="" style="ellipse;whiteSpace=wrap;html=1;aspect=fixed;" parent="1" vertex="1">
          <mxGeometry x="750" y="177.5" width="15" height="15" as="geometry" />
        </mxCell>
        <mxCell id="VJtvqMew01t1XMJXiIaO-363" style="edgeStyle=orthogonalEdgeStyle;rounded=0;orthogonalLoop=1;jettySize=auto;html=1;entryX=1;entryY=0.5;entryDx=0;entryDy=0;endArrow=none;endFill=0;curved=1;" parent="1" source="VJtvqMew01t1XMJXiIaO-349" target="VJtvqMew01t1XMJXiIaO-22" edge="1">
          <mxGeometry relative="1" as="geometry" />
        </mxCell>
        <mxCell id="VJtvqMew01t1XMJXiIaO-349" value="" style="ellipse;whiteSpace=wrap;html=1;aspect=fixed;" parent="1" vertex="1">
          <mxGeometry x="750" y="277.5" width="15" height="15" as="geometry" />
        </mxCell>
        <mxCell id="VJtvqMew01t1XMJXiIaO-364" style="edgeStyle=orthogonalEdgeStyle;rounded=0;orthogonalLoop=1;jettySize=auto;html=1;entryX=1;entryY=0.5;entryDx=0;entryDy=0;endArrow=none;endFill=0;" parent="1" source="VJtvqMew01t1XMJXiIaO-350" target="VJtvqMew01t1XMJXiIaO-16" edge="1">
          <mxGeometry relative="1" as="geometry" />
        </mxCell>
        <mxCell id="VJtvqMew01t1XMJXiIaO-350" value="" style="ellipse;whiteSpace=wrap;html=1;aspect=fixed;" parent="1" vertex="1">
          <mxGeometry x="750" y="353.5" width="15" height="15" as="geometry" />
        </mxCell>
        <mxCell id="VJtvqMew01t1XMJXiIaO-371" style="edgeStyle=orthogonalEdgeStyle;rounded=0;orthogonalLoop=1;jettySize=auto;html=1;endArrow=none;endFill=0;" parent="1" source="VJtvqMew01t1XMJXiIaO-351" target="VJtvqMew01t1XMJXiIaO-20" edge="1">
          <mxGeometry relative="1" as="geometry" />
        </mxCell>
        <mxCell id="VJtvqMew01t1XMJXiIaO-417" style="edgeStyle=orthogonalEdgeStyle;rounded=0;orthogonalLoop=1;jettySize=auto;html=1;entryX=1;entryY=0.5;entryDx=0;entryDy=0;curved=1;endArrow=none;endFill=0;" parent="1" source="VJtvqMew01t1XMJXiIaO-351" target="VJtvqMew01t1XMJXiIaO-17" edge="1">
          <mxGeometry relative="1" as="geometry">
            <Array as="points">
              <mxPoint x="580" y="474" />
              <mxPoint x="580" y="240" />
            </Array>
          </mxGeometry>
        </mxCell>
        <mxCell id="VJtvqMew01t1XMJXiIaO-418" style="edgeStyle=orthogonalEdgeStyle;rounded=0;orthogonalLoop=1;jettySize=auto;html=1;entryX=1;entryY=0.5;entryDx=0;entryDy=0;curved=1;endArrow=none;endFill=0;" parent="1" source="VJtvqMew01t1XMJXiIaO-351" target="VJtvqMew01t1XMJXiIaO-18" edge="1">
          <mxGeometry relative="1" as="geometry">
            <Array as="points">
              <mxPoint x="570" y="474" />
              <mxPoint x="570" y="390" />
            </Array>
          </mxGeometry>
        </mxCell>
        <mxCell id="VJtvqMew01t1XMJXiIaO-351" value="" style="ellipse;whiteSpace=wrap;html=1;aspect=fixed;" parent="1" vertex="1">
          <mxGeometry x="750" y="466" width="15" height="15" as="geometry" />
        </mxCell>
        <mxCell id="VJtvqMew01t1XMJXiIaO-382" style="edgeStyle=orthogonalEdgeStyle;rounded=0;orthogonalLoop=1;jettySize=auto;html=1;entryX=0.5;entryY=0;entryDx=0;entryDy=0;endArrow=none;endFill=0;" parent="1" source="VJtvqMew01t1XMJXiIaO-373" target="VJtvqMew01t1XMJXiIaO-381" edge="1">
          <mxGeometry relative="1" as="geometry" />
        </mxCell>
        <mxCell id="VJtvqMew01t1XMJXiIaO-373" value="" style="ellipse;whiteSpace=wrap;html=1;aspect=fixed;" parent="1" vertex="1">
          <mxGeometry x="355.5" y="466" width="15" height="15" as="geometry" />
        </mxCell>
        <mxCell id="VJtvqMew01t1XMJXiIaO-385" style="edgeStyle=orthogonalEdgeStyle;rounded=0;orthogonalLoop=1;jettySize=auto;html=1;endArrow=halfCircle;endFill=0;" parent="1" source="VJtvqMew01t1XMJXiIaO-381" edge="1">
          <mxGeometry relative="1" as="geometry">
            <mxPoint x="363" y="560" as="targetPoint" />
          </mxGeometry>
        </mxCell>
        <mxCell id="VJtvqMew01t1XMJXiIaO-439" value="시스템 자원 현황" style="edgeLabel;html=1;align=center;verticalAlign=middle;resizable=0;points=[];fontStyle=1" parent="VJtvqMew01t1XMJXiIaO-385" vertex="1" connectable="0">
          <mxGeometry x="0.4465" relative="1" as="geometry">
            <mxPoint y="19" as="offset" />
          </mxGeometry>
        </mxCell>
        <mxCell id="VJtvqMew01t1XMJXiIaO-381" value="" style="whiteSpace=wrap;html=1;aspect=fixed;" parent="1" vertex="1">
          <mxGeometry x="353" y="510" width="20" height="20" as="geometry" />
        </mxCell>
        <mxCell id="VJtvqMew01t1XMJXiIaO-387" style="edgeStyle=orthogonalEdgeStyle;rounded=0;orthogonalLoop=1;jettySize=auto;html=1;entryX=0.494;entryY=0.992;entryDx=0;entryDy=0;entryPerimeter=0;endArrow=none;endFill=0;" parent="1" source="VJtvqMew01t1XMJXiIaO-373" target="VJtvqMew01t1XMJXiIaO-24" edge="1">
          <mxGeometry relative="1" as="geometry" />
        </mxCell>
        <mxCell id="VJtvqMew01t1XMJXiIaO-394" value="" style="whiteSpace=wrap;html=1;aspect=fixed;" parent="1" vertex="1">
          <mxGeometry x="290" y="165" width="20" height="21" as="geometry" />
        </mxCell>
        <mxCell id="VJtvqMew01t1XMJXiIaO-422" style="edgeStyle=orthogonalEdgeStyle;rounded=0;orthogonalLoop=1;jettySize=auto;html=1;entryX=0;entryY=0.5;entryDx=0;entryDy=0;endArrow=none;endFill=0;" parent="1" source="VJtvqMew01t1XMJXiIaO-394" target="VJtvqMew01t1XMJXiIaO-436" edge="1">
          <mxGeometry relative="1" as="geometry">
            <mxPoint x="380" y="160.00000000000006" as="targetPoint" />
          </mxGeometry>
        </mxCell>
        <mxCell id="VJtvqMew01t1XMJXiIaO-424" value="" style="whiteSpace=wrap;html=1;aspect=fixed;" parent="1" vertex="1">
          <mxGeometry x="290" y="105" width="20" height="20" as="geometry" />
        </mxCell>
        <mxCell id="VJtvqMew01t1XMJXiIaO-426" style="edgeStyle=orthogonalEdgeStyle;rounded=0;orthogonalLoop=1;jettySize=auto;html=1;endArrow=halfCircle;endFill=0;exitX=0;exitY=0.5;exitDx=0;exitDy=0;" parent="1" edge="1">
          <mxGeometry relative="1" as="geometry">
            <mxPoint x="250" y="114.5" as="targetPoint" />
            <mxPoint x="290" y="114" as="sourcePoint" />
          </mxGeometry>
        </mxCell>
        <mxCell id="VJtvqMew01t1XMJXiIaO-433" value="검색어" style="edgeLabel;html=1;align=center;verticalAlign=middle;resizable=0;points=[];fontStyle=1" parent="VJtvqMew01t1XMJXiIaO-426" vertex="1" connectable="0">
          <mxGeometry x="0.6288" y="-2" relative="1" as="geometry">
            <mxPoint x="-7" y="20" as="offset" />
          </mxGeometry>
        </mxCell>
        <mxCell id="VJtvqMew01t1XMJXiIaO-429" style="edgeStyle=orthogonalEdgeStyle;rounded=0;orthogonalLoop=1;jettySize=auto;html=1;entryX=0;entryY=0.5;entryDx=0;entryDy=0;endArrow=none;endFill=0;" parent="1" source="VJtvqMew01t1XMJXiIaO-424" target="VJtvqMew01t1XMJXiIaO-435" edge="1">
          <mxGeometry relative="1" as="geometry">
            <mxPoint x="380" y="115.00000000000006" as="targetPoint" />
          </mxGeometry>
        </mxCell>
        <mxCell id="VJtvqMew01t1XMJXiIaO-430" style="edgeStyle=orthogonalEdgeStyle;rounded=0;orthogonalLoop=1;jettySize=auto;html=1;entryX=0;entryY=0;entryDx=0;entryDy=15;entryPerimeter=0;curved=1;endArrow=none;endFill=0;exitX=1;exitY=0.5;exitDx=0;exitDy=0;" parent="1" source="VJtvqMew01t1XMJXiIaO-435" target="VJtvqMew01t1XMJXiIaO-15" edge="1">
          <mxGeometry relative="1" as="geometry">
            <mxPoint x="400" y="114.99999999999994" as="sourcePoint" />
            <Array as="points">
              <mxPoint x="580" y="115" />
              <mxPoint x="580" y="115" />
            </Array>
          </mxGeometry>
        </mxCell>
        <mxCell id="VJtvqMew01t1XMJXiIaO-435" value="" style="ellipse;whiteSpace=wrap;html=1;aspect=fixed;" parent="1" vertex="1">
          <mxGeometry x="373" y="107.5" width="15" height="15" as="geometry" />
        </mxCell>
        <mxCell id="VJtvqMew01t1XMJXiIaO-436" value="" style="ellipse;whiteSpace=wrap;html=1;" parent="1" vertex="1">
          <mxGeometry x="373" y="167.5" width="15" height="15" as="geometry" />
        </mxCell>
        <mxCell id="F4wmyyO4ZUKb2ccq9GjF-2" style="edgeStyle=orthogonalEdgeStyle;rounded=0;orthogonalLoop=1;jettySize=auto;html=1;entryX=0;entryY=0;entryDx=0;entryDy=15;entryPerimeter=0;curved=1;endArrow=none;endFill=0;" edge="1" parent="1" source="VJtvqMew01t1XMJXiIaO-436" target="VJtvqMew01t1XMJXiIaO-21">
          <mxGeometry relative="1" as="geometry" />
        </mxCell>
        <mxCell id="F4wmyyO4ZUKb2ccq9GjF-9" value="" style="rounded=0;orthogonalLoop=1;jettySize=auto;html=1;endArrow=halfCircle;endFill=0;endSize=6;strokeWidth=1;sketch=0;fontSize=12;curved=1;exitX=0;exitY=0.5;exitDx=0;exitDy=0;" edge="1" parent="1" source="VJtvqMew01t1XMJXiIaO-394">
          <mxGeometry relative="1" as="geometry">
            <mxPoint x="280" y="175.92" as="sourcePoint" />
            <mxPoint x="250" y="176" as="targetPoint" />
          </mxGeometry>
        </mxCell>
        <mxCell id="F4wmyyO4ZUKb2ccq9GjF-11" value="레스토랑 선택" style="edgeLabel;html=1;align=center;verticalAlign=middle;resizable=0;points=[];fontStyle=1" vertex="1" connectable="0" parent="F4wmyyO4ZUKb2ccq9GjF-9">
          <mxGeometry x="0.71" y="-1" relative="1" as="geometry">
            <mxPoint y="18" as="offset" />
          </mxGeometry>
        </mxCell>
        <mxCell id="F4wmyyO4ZUKb2ccq9GjF-10" value="" style="ellipse;whiteSpace=wrap;html=1;align=center;aspect=fixed;fillColor=none;strokeColor=none;resizable=0;perimeter=centerPerimeter;rotatable=0;allowArrows=0;points=[];outlineConnect=1;" vertex="1" parent="1">
          <mxGeometry x="330" y="170" width="10" height="10" as="geometry" />
        </mxCell>
      </root>
    </mxGraphModel>
  </diagram>
</mxfile>
